<svg width="58" height="58" viewBox="0 0 58 58" fill="none" xmlns="http://www.w3.org/2000/svg">
<rect width="57.732" height="58" fill="#010101"/>
<path fill-rule="evenodd" clip-rule="evenodd" d="M49.5131 46.286C49.2736 46.284 49.0281 46.3423 48.7997 46.4518C48.5402 46.5582 48.2778 46.6799 48.0314 46.7873L47.6652 46.9428L47.1893 47.1362V47.1423C42.0329 49.2867 36.6171 50.543 31.6054 50.6535C31.4218 50.6596 31.2372 50.6596 31.0556 50.6596C23.1753 50.6637 16.7448 46.9152 10.2544 43.222C10.0269 43.1002 9.79846 43.0358 9.56997 43.0358C9.27663 43.0358 8.9783 43.1473 8.76079 43.357C8.54229 43.5668 8.41258 43.8727 8.41457 44.1826C8.41358 44.5867 8.6261 44.9561 8.92043 45.1955C15.0107 50.6166 21.6847 55.6541 30.6595 55.6582C30.8351 55.6582 31.0127 55.6541 31.1933 55.65C36.9014 55.5181 43.3609 53.5415 48.3716 50.3128L48.4006 50.2923C49.0571 49.8903 49.7136 49.433 50.3322 48.9255C50.7183 48.6319 50.9827 48.1766 50.9788 47.7009C50.9668 46.8579 50.2674 46.286 49.5131 46.286Z" fill="white"/>
<path fill-rule="evenodd" clip-rule="evenodd" d="M56.4664 43.2926V43.2905C56.4464 42.7749 56.3397 42.3851 56.1312 42.0598L56.1102 42.0301L56.0853 41.9984C55.8727 41.7611 55.6702 41.671 55.4477 41.5708C54.7912 41.3109 53.8343 41.1728 52.6809 41.1687C51.8528 41.1687 50.9369 41.2485 50.0209 41.4542L50.0189 41.3918L49.093 41.7079L49.077 41.7161L48.5552 41.89V41.9135C47.9436 42.1734 47.3858 42.4987 46.868 42.8823C46.5487 43.1299 46.2793 43.4563 46.2644 43.9576C46.2564 44.2297 46.3911 44.5428 46.6176 44.729C46.8401 44.9152 47.1005 44.9765 47.329 44.9765C47.3839 44.9765 47.4337 44.9745 47.4786 44.9663L47.5235 44.9622L47.5585 44.9561C48.0104 44.8579 48.669 44.7924 49.4392 44.6799C50.0997 44.6062 50.8012 44.5499 51.4098 44.5499C51.8408 44.5479 52.226 44.5775 52.4914 44.6379C52.6241 44.6655 52.7228 44.7013 52.7797 44.73C52.7977 44.7382 52.8106 44.7464 52.8186 44.7515C52.8306 44.7893 52.8476 44.8855 52.8456 45.0236C52.8515 45.5454 52.633 46.5121 52.3387 47.4554C52.0503 48.4007 51.6991 49.348 51.4657 49.9772C51.4108 50.1235 51.3759 50.2811 51.3759 50.455C51.3719 50.7087 51.4716 51.0146 51.6862 51.2182C51.8947 51.4218 52.1641 51.5016 52.3916 51.5016H52.4016C52.7428 51.4975 53.0311 51.3594 53.2806 51.1599C55.6273 48.9961 56.4415 45.5454 56.4744 43.6005L56.4664 43.2926Z" fill="white"/>
<path fill-rule="evenodd" clip-rule="evenodd" d="M35.0167 20.1102C33.6368 20.2166 32.0464 20.324 30.455 20.5399C28.0175 20.8693 25.5769 21.301 23.5635 22.2821C19.6403 23.9129 16.9883 27.3923 16.9883 32.5014C16.9883 38.919 21.0172 42.1805 26.1087 42.1805C27.8039 42.1805 29.1858 41.9606 30.454 41.6373C32.4704 40.9835 34.1666 39.7886 36.1831 37.6105C37.3484 39.2433 37.6677 40.0065 39.6812 41.7447C40.211 41.9606 40.7408 41.9606 41.1639 41.6373C42.438 40.5487 44.666 38.5896 45.8313 37.5052C46.3632 37.0693 46.2564 36.4166 45.9361 35.8765C44.7727 34.3521 43.6034 33.0467 43.6034 30.1095V20.324C43.6034 16.1919 43.9226 12.3851 40.9533 9.56147C38.5158 7.28006 34.6974 6.40842 31.7281 6.40842H30.454C25.0481 6.72966 19.32 9.1236 18.0479 15.976C17.8354 16.8477 18.4729 17.1709 18.898 17.2784L24.8346 18.0395C25.4742 17.9321 25.7895 17.3858 25.8962 16.8466C26.426 14.4527 28.3337 13.2557 30.454 13.0378H30.881C32.1531 13.0378 33.531 13.5831 34.2734 14.6706C35.1215 15.975 35.0157 17.7162 35.0157 19.2385V20.1102H35.0167ZM33.8513 33.0467C33.109 34.5649 31.8349 35.544 30.455 35.8765C30.2444 35.8765 29.9272 35.9839 29.6069 35.9839C27.2761 35.9839 25.8962 34.1332 25.8962 31.4159C25.8962 27.9355 27.9117 26.3048 30.454 25.5436C31.8339 25.2183 33.4243 25.1078 35.0157 25.1078V26.4142C35.0167 28.9146 35.1215 30.8707 33.8513 33.0467Z" fill="white"/>
</svg>
