<svg width="49" height="51" viewBox="0 0 49 51" fill="none" xmlns="http://www.w3.org/2000/svg">
<path d="M42.3966 0H6.05642C2.7166 0 0 2.84571 0 6.3437V44.4058C0 47.9042 2.7167 50.7499 6.05642 50.7499H42.3966C45.7369 50.7499 48.4536 47.9042 48.4536 44.4058V6.3438C48.4537 2.84571 45.737 0 42.3966 0Z" fill="white"/>
<path d="M40.8826 25.375H33.3117V19.0312C33.3117 17.2801 34.6687 17.4454 36.3399 17.4454H39.3687V9.5155H33.3117C28.2938 9.5155 24.2269 13.7751 24.2269 19.0312V25.375H18.1703V33.3047H24.2269V50.75H33.3117V33.3047H37.8542L40.8826 25.375Z" fill="#010101"/>
</svg>
