<svg width="57" height="58" viewBox="0 0 57 58" fill="none" xmlns="http://www.w3.org/2000/svg">
<rect width="56.701" height="58" transform="translate(0.195923)" fill="#010101"/>
<path d="M30.3884 17.0829C23.5297 17.0829 17.8468 22.9136 17.8468 30.1764C17.8468 37.4392 23.4318 43.2699 30.3884 43.2699C37.3451 43.2699 42.9301 37.3369 42.9301 30.1764C42.9301 23.0159 37.2472 17.0829 30.3884 17.0829ZM30.3884 38.5644C25.9793 38.5644 22.354 34.7796 22.354 30.1764C22.354 25.5732 25.9793 21.7884 30.3884 21.7884C34.7976 21.7884 38.4229 25.5732 38.4229 30.1764C38.4229 34.7796 34.7976 38.5644 30.3884 38.5644Z" fill="white"/>
<path d="M43.42 19.7425C44.9893 19.7425 46.2614 18.4144 46.2614 16.776C46.2614 15.1377 44.9893 13.8095 43.42 13.8095C41.8507 13.8095 40.5785 15.1377 40.5785 16.776C40.5785 18.4144 41.8507 19.7425 43.42 19.7425Z" fill="white"/>
<path d="M50.7686 9.10407C48.2211 6.34216 44.5957 4.91006 40.4805 4.91006H20.2963C11.7719 4.91006 6.08899 10.843 6.08899 19.7425V40.7125C6.08899 45.1111 7.46073 48.896 10.2042 51.6579C12.8497 54.3175 16.3771 55.6473 20.3943 55.6473H40.3825C44.5958 55.6473 48.1231 54.2152 50.6706 51.6579C53.3161 48.9983 54.6879 45.2134 54.6879 40.8148V19.7425C54.6879 15.4462 53.3161 11.7637 50.7686 9.10407ZM50.3767 40.8148C50.3767 43.9859 49.2989 46.5432 47.5352 48.2822C45.7715 50.0212 43.322 50.9418 40.3825 50.9418H20.3943C17.4549 50.9418 15.0053 50.0212 13.2416 48.2822C11.478 46.4409 10.5961 43.8836 10.5961 40.7125V19.7425C10.5961 16.6737 11.478 14.1164 13.2416 12.2751C14.9073 10.5362 17.4549 9.61553 20.3943 9.61553H40.5785C43.518 9.61553 45.9675 10.5362 47.7312 12.3774C49.3969 14.2187 50.3767 16.776 50.3767 19.7425V40.8148Z" fill="white"/>
</svg>
